<svg xmlns="http://www.w3.org/2000/svg" width="27" height="26" viewBox="0 0 27 26">
  <metadata><?xpacket begin="﻿" id="W5M0MpCehiHzreSzNTczkc9d"?>
<x:xmpmeta xmlns:x="adobe:ns:meta/" x:xmptk="Adobe XMP Core 5.6-c138 79.159824, 2016/09/14-01:09:01        ">
   <rdf:RDF xmlns:rdf="http://www.w3.org/1999/02/22-rdf-syntax-ns#">
      <rdf:Description rdf:about=""/>
   </rdf:RDF>
</x:xmpmeta>
                                                                                                    
                                                                                                    
                                                                                                    
                                                                                                    
                                                                                                    
                                                                                                    
                                                                                                    
                                                                                                    
                                                                                                    
                                                                                                    
                                                                                                    
                                                                                                    
                                                                                                    
                                                                                                    
                                                                                                    
                                                                                                    
                                                                                                    
                                                                                                    
                                                                                                    
                                                                                                    
                           
<?xpacket end="w"?></metadata>
<defs>
    <style>
      .cls-1 {
        fill: #666;
        fill-rule: evenodd;
      }
    </style>
  </defs>
  <path id="形状_1" data-name="形状 1" class="cls-1" d="M700.1,195a1,1,0,0,1-1-1V179a1,1,0,0,1,.259-0.67L705.9,171H688.243l6.565,7.333a1,1,0,0,1,.253.666v9.025l1.6,1.286a1,1,0,0,1,.149,1.406,1.007,1.007,0,0,1-1.412.148l-1.968-1.586a1,1,0,0,1-.372-0.777V179.38l-7.8-8.714A1,1,0,0,1,686,169h22.163a1,1,0,0,1,.745,1.67l-7.809,8.713V194a1,1,0,0,1-1,1h0Zm10.879-15.431h-6.811a1.016,1.016,0,1,0,0,2.031h6.811a1.016,1.016,0,1,0,0-2.031h0Zm0,5.3h-6.811a1.016,1.016,0,1,0,0,2.031h6.811a1.016,1.016,0,1,0,0-2.031h0Zm0,5.3h-6.811a1.016,1.016,0,1,0,0,2.031h6.811a1.016,1.016,0,1,0,0-2.031h0Zm0,0" transform="translate(-685 -169)"/>
</svg>
