<svg xmlns="http://www.w3.org/2000/svg" xmlns:xlink="http://www.w3.org/1999/xlink" width="38" height="60.125" viewBox="0 0 38 60.125">
  <defs>
    <style>
      .cls-1 {
        filter: url(#filter);
      }

      .cls-2 {
        font-size: 20px;
        fill: #333;
        font-family: "PingFang SC";
        font-weight: 500;
      }

      .cls-3 {
        fill: #da821a;
        fill-rule: evenodd;
      }
    </style>
    <filter id="filter" filterUnits="userSpaceOnUse">
      <feFlood result="flood" flood-color="#666"/>
      <feComposite result="composite" operator="in" in2="SourceGraphic"/>
      <feBlend result="blend" in2="SourceGraphic"/>
    </filter>
  </defs>
  <g id="组_14" data-name="组 14" class="cls-1">
    <text id="合约" class="cls-2" x="-0.627" y="58.212">合约</text>
    <path id="形状_805" data-name="形状 805" class="cls-3" d="M389.962,35.817A10.529,10.529,0,0,0,382.5,17.875h-0.059A10.4,10.4,0,0,0,375.037,21l-1.125,1.158-0.728-.777a10.474,10.474,0,0,0-14.837-.37A10.593,10.593,0,0,0,358,35.934l2.53,2.47a0.028,0.028,0,0,1,0,.038l-0.713.725a2.693,2.693,0,0,0,.021,3.8l0.311,0.31h0a2.868,2.868,0,0,0,2.026.834c0.069,0,.137-0.015.206-0.02a2.874,2.874,0,0,0,.835,1.843l0.162,0.16a2.866,2.866,0,0,0,2.026.834c0.052,0,.1-0.012.155-0.015a2.869,2.869,0,0,0,.836,1.876L366.617,49a2.67,2.67,0,0,0,1.883.778h0.1c0.067,0,.13-0.015.2-0.02a2.871,2.871,0,0,0,.838,1.889l0.217,0.217a2.675,2.675,0,0,0,1.884.778h0.1a2.856,2.856,0,0,0,1.528-.456l0.9,0.916a2.975,2.975,0,0,0,2.128.9h0.119a3.223,3.223,0,0,0,2.28-.934,3.259,3.259,0,0,0,.942-2.649h0a3.219,3.219,0,0,0,2.172-.871,3.27,3.27,0,0,0,1-2.8c0.011,0,.022,0,0.033,0a3.236,3.236,0,0,0,3.229-3.513,3.309,3.309,0,0,0,3.106-2.242,3.156,3.156,0,0,0-.717-3.235l-0.294-.312a0.028,0.028,0,0,1,0-.038ZM373.89,24.637l3.9,4.162-3.177,2.908a5.3,5.3,0,0,1-6.651.4,0.848,0.848,0,0,1-.092-1.273ZM363.2,41.834c-0.032.032-.053,0.071-0.084,0.1l-0.247.252a0.957,0.957,0,0,1-1.358.007l-0.312-.31a1.186,1.186,0,0,1-.01-1.664l3.944-4.008a1.161,1.161,0,0,1,.827-0.347,1.2,1.2,0,0,1,.831.338l0.161,0.16A1.165,1.165,0,0,1,367,37.973Zm3.18,2.856c-0.051.052-.089,0.112-0.135,0.167a1.17,1.17,0,0,1-1.656.009l-0.162-.16a1.176,1.176,0,0,1-.048-1.607l3.8-3.861c0.033-.033.056-0.073,0.087-0.107l0.1-.1a1.162,1.162,0,0,1,.827-0.348h0.007a1.159,1.159,0,0,1,.822.337l0.162,0.161a1.169,1.169,0,0,1,.069,1.574Zm2.9,3.174a0.958,0.958,0,0,1-1.359.008l-0.311-.309a1.154,1.154,0,0,1-.07-1.573l3.87-3.933c0.051-.051.087-0.111,0.132-0.165l0,0a1.169,1.169,0,0,1,1.658-.01l0.161,0.16a1.186,1.186,0,0,1,.01,1.664Zm3.239,2.864a0.957,0.957,0,0,1-1.359.008l-0.311-.309a1.186,1.186,0,0,1-.01-1.664l4.09-4.158a0.961,0.961,0,0,1,1.362-.008l0.311,0.308a1.186,1.186,0,0,1,.01,1.664Zm5.083,1.111a1.483,1.483,0,0,1-1.1.442,1.53,1.53,0,0,1-1.089-.462l-0.781-.8,2.162-2.2,0.516,0.557a3.172,3.172,0,0,0,.336.3,1.557,1.557,0,0,1-.048,2.16h0Zm10.122-11.667a1.587,1.587,0,0,1-1.6,1.346,1.533,1.533,0,0,1-.78-0.242c-0.016-.018-0.026-0.038-0.043-0.055l-4.748-4.972a0.876,0.876,0,0,0-1.238-.031l-0.019.018a0.815,0.815,0,0,0-.031,1.151c1.378,1.457,4.793,5.061,4.89,5.139a1.553,1.553,0,0,1-.138,2.077,1.547,1.547,0,0,1-2.185-.048l-4.56-4.788a0.82,0.82,0,0,0-1.163-.027l-0.018.018a0.877,0.877,0,0,0-.034,1.231l4.73,5.065a1.584,1.584,0,0,1,.417,1.438,1.538,1.538,0,0,1-2.362.951l-0.849-.869a2.9,2.9,0,0,0-.189-3.89l-0.161-.16a2.855,2.855,0,0,0-2.238-.814,2.88,2.88,0,0,0-.839-1.89l-0.162-.16a2.857,2.857,0,0,0-2.18-.82,2.875,2.875,0,0,0-.838-1.876l-0.218-.217a2.668,2.668,0,0,0-1.882-.778h-0.105c-0.065,0-.126.015-0.19,0.02a2.872,2.872,0,0,0-.833-1.844L368,34.991a2.766,2.766,0,0,0-1.105-.7,2.906,2.906,0,0,0-2.979.714L361.754,37.2l-2.535-2.475a8.859,8.859,0,0,1,.308-12.473,8.765,8.765,0,0,1,12.415.306l0.775,0.827s-4.884,5.027-6.966,7.18a1.341,1.341,0,0,0,.028,1.89l0.148,0.145a7,7,0,0,0,9.838.378l3.2-2.926,8.371,8.907a1.411,1.411,0,0,1,.382,1.214h0Zm-0.642-3.994-3.652-3.884,0,0-8.332-8.893,1.171-1.206a8.7,8.7,0,0,1,6.2-2.606H382.5a8.832,8.832,0,0,1,6.267,14.992Zm0,0" transform="translate(-355 -17.875)"/>
  </g>
</svg>
